# xmcd
#
# Track frame offsets: 
#        150
#        11819
#        20626
#        28953
#        40756
#        51867
#        62762
#        72424
#        80358
#        89248
#        105709
#        115351
#
# Disc length: 1716 seconds
#
# Revision: 0
# Processed by: cddbd v1.5.2PL0 Copyright (c) Steve Scherf et al.
# Submitted via: ExactAudioCopyFreeDBPlugin 1.0
#
DISCID=aa06b20c
DTITLE=Jacques Brel - Quand on n'a que l'amour
DYEAR=2008
DGENRE=Chanson française
TTITLE0=Quand On N'A Que l'Amour
TTITLE1=La Haine
TTITLE2=Grand Jacques
TTITLE3=Il Pleut
TTITLE4=Le Diable
TTITLE5=Il Nous Faut Regarder
TTITLE6=C'Est Comme Ça
TTITLE7=Il Pleut Pleuvoir
TTITLE8=Le Fou Du Roi
TTITLE9=Sur La Place
TTITLE10=S'Il Te Faut
TTITLE11=La Bastille
EXTD=
EXTT0=
EXTT1=
EXTT2=
EXTT3=
EXTT4=
EXTT5=
EXTT6=
EXTT7=
EXTT8=
EXTT9=
EXTT10=
EXTT11=
PLAYORDER=
